<svg xmlns:rdf="http://www.w3.org/1999/02/22-rdf-syntax-ns#" xmlns="http://www.w3.org/2000/svg" xmlns:cc="http://creativecommons.org/ns#" xmlns:dc="http://purl.org/dc/elements/1.1/" height="300px" width="300px" fill="#8b82e2" xml:space="preserve" viewBox="0 0 100 100" version="1.1" y="0px" x="0px"><path d="m39.312 0.25c-10.408 0-18.874 8.4669-18.874 18.875v7.25h-13.186c-1.2431 0-2.252 1.007-2.252 2.25v68.873c0 1.243 1.0089 2.252 2.252 2.252h64.123 21.373c1.243 0 2.252-1.009 2.252-2.252v-68.873c0-1.243-1.009-2.25-2.252-2.25h-13.186v-7.25c0-10.408-8.466-18.875-18.874-18.875-1.514 0-3.031 0.18444-4.508 0.54688-1.208 0.29582-1.947 1.5151-1.651 2.7226s1.517 1.9445 2.723 1.6485c1.127-0.2765 2.283-0.416 3.436-0.416 7.925 0 14.373 6.447 14.373 14.373v7.25h-3.686-13.187v-7.25c0-10.408-8.467-18.875-18.876-18.875zm0 4.502c7.926 0 14.376 6.447 14.376 14.373v7.25h-7.374v-7.25c0-2.136 0.46-4.192 1.366-6.115 0.53-1.125 0.046-2.466-1.078-2.996-1.125-0.5307-2.467-0.0488-2.997 1.076-1.19 2.528-1.793 5.231-1.793 8.035v7.25h-16.873v-7.25c0-7.926 6.448-14.373 14.373-14.373zm34.313 26.125h6.186c-0.001 21.457 0 42.914 0 64.371h-6.186v-64.371zm10.687 0h6.186v64.371h-6.186v-64.371zm-61.55 53.115h33.765a2.2513 2.2513 0 1 1 0 4.502h-33.765a2.2513 2.2513 0 1 1 0 -4.502z"/></svg>