<svg height='300px' width='300px'  fill="#ffffff" xmlns="http://www.w3.org/2000/svg" xmlns:xlink="http://www.w3.org/1999/xlink" version="1.1" x="0px" y="0px" viewBox="0 0 60 60" enable-background="new 0 0 60 60" xml:space="preserve"><g><path d="M29,15.21v30.78c-0.98-1.23-6.1-6.64-17.72-3.2c-0.3,0.09-0.63,0.03-0.88-0.16s-0.4-0.48-0.4-0.8V14.64   c0-0.44,0.29-0.83,0.72-0.96C20.62,10.75,26.36,13.3,29,15.21z"></path><path d="M53,13.66h-1.16c0.11,0.31,0.16,0.64,0.16,0.98v27.19c0,0.95-0.43,1.82-1.19,2.39c-0.51,0.39-1.16,0.61-1.81,0.61   c-0.29,0-0.58-0.04-0.86-0.13c-2.34-0.69-4.55-1.04-6.57-1.04c-3.31,0-5.58,0.93-7.02,1.85c5.53-0.99,11.39-0.3,18.12,2.09   c0.11,0.04,0.22,0.06,0.33,0.06c0.2,0,0.41-0.06,0.58-0.18c0.27-0.19,0.42-0.49,0.42-0.82v-32C54,14.1,53.55,13.66,53,13.66z"></path><path d="M11.85,44.7c-0.29,0.08-0.57,0.12-0.85,0.12c-0.65,0-1.27-0.21-1.79-0.6C8.45,43.67,8,42.77,8,41.83V14.63   c0-0.34,0.06-0.67,0.17-0.98H7c-0.55,0-1,0.45-1,1v32c0,0.33,0.16,0.63,0.42,0.82C6.59,47.59,6.8,47.66,7,47.66   c0.11,0,0.23-0.02,0.33-0.06c6.73-2.39,12.59-3.08,18.11-2.09c-1.45-0.92-3.72-1.85-7.02-1.85C16.41,43.66,14.2,44.01,11.85,44.7z"></path><path d="M50,14.64v27.19c0,0.32-0.15,0.61-0.4,0.8s-0.58,0.25-0.88,0.16c-12.03-3.56-17.18,2.41-17.9,3.36c0,0-0.01,0-0.01,0.01   l-0.17-30.68c2.46-1.93,8.26-4.87,18.64-1.8C49.71,13.81,50,14.2,50,14.64z"></path></g></svg>